<svg width="24" height="24" xmlns="http://www.w3.org/2000/svg">

 <g>
  <title>background</title>
  <rect fill="none" id="canvas_background" height="602" width="802" y="-1" x="-1"/>
 </g>
 <g>
  <title>Layer 1</title>
  <path id="svg_1" fill="none" d="m0,0l24,0l0,24l-24,0l0,-24z"/>
  <path fill="#e6bf71" id="svg_2" d="m16.59,9l-1.59,0l0,-5c0,-0.55 -0.45,-1 -1,-1l-4,0c-0.55,0 -1,0.45 -1,1l0,5l-1.59,0c-0.89,0 -1.34,1.08 -0.71,1.71l4.59,4.59c0.39,0.39 1.02,0.39 1.41,0l4.59,-4.59c0.63,-0.63 0.19,-1.71 -0.7,-1.71zm-11.59,10c0,0.55 0.45,1 1,1l12,0c0.55,0 1,-0.45 1,-1s-0.45,-1 -1,-1l-12,0c-0.55,0 -1,0.45 -1,1z"/>
 </g>
</svg>